<?xml version="1.0" encoding="utf-8"?>
<!-- Generator: Adobe Illustrator 15.1.0, SVG Export Plug-In . SVG Version: 6.00 Build 0)  -->
<!DOCTYPE svg PUBLIC "-//W3C//DTD SVG 1.1//EN" "http://www.w3.org/Graphics/SVG/1.1/DTD/svg11.dtd">
<svg version="1.1" xmlns="http://www.w3.org/2000/svg" xmlns:xlink="http://www.w3.org/1999/xlink" x="0px" y="0px"
	 width="713.287px" height="400px" viewBox="0 0 713.287 400" enable-background="new 0 0 713.287 400" xml:space="preserve">
<g id="Calque_1">
	
		<line fill="none" stroke="#27348B" stroke-width="6" stroke-linecap="round" stroke-miterlimit="10" x1="200.7" y1="6.993" x2="200.7" y2="391.608"/>
	
		<line fill="none" stroke="#27348B" stroke-width="6" stroke-linecap="round" stroke-miterlimit="10" x1="6.376" y1="104.782" x2="707.989" y2="105.684"/>
	
		<line fill="none" stroke="#27348B" stroke-width="6" stroke-linecap="round" stroke-miterlimit="10" x1="6.376" y1="247.194" x2="707.989" y2="248.096"/>
	<g>
		<g>
			
				<line fill="none" stroke="#27348B" stroke-width="6" stroke-linecap="round" stroke-miterlimit="10" x1="404.665" y1="61.539" x2="404.665" y2="66.539"/>
			
				<line fill="none" stroke="#27348B" stroke-width="6" stroke-linecap="round" stroke-miterlimit="10" stroke-dasharray="10.2276,15.3413" x1="404.665" y1="81.88" x2="404.665" y2="381.036"/>
			
				<line fill="none" stroke="#27348B" stroke-width="6" stroke-linecap="round" stroke-miterlimit="10" x1="404.665" y1="388.707" x2="404.665" y2="393.707"/>
		</g>
	</g>
</g>
<g id="Calque_2">
	<g>
		<rect x="259.923" y="127.864" fill="#CC6633" width="95.105" height="95.104"/>
		<path fill="#1D1D1B" d="M355.028,223.268c-3.963,0.27-7.925,0.471-11.888,0.668c-3.963,0.201-7.925,0.42-11.888,0.566
			c-3.963,0.17-7.925,0.328-11.888,0.453l-11.888,0.375l-11.888,0.313l-11.888,0.231c-7.925,0.169-15.851,0.19-23.776,0.293
			l-3.2,0.041l0-3.241l0.001-11.888c0.004-3.963,0.005-7.926,0.064-11.889l0.299-23.775c0.113-7.926,0.22-15.851,0.428-23.776
			c0.185-7.926,0.513-15.851,0.765-23.776l0.054-1.694l1.588,0.052c7.926,0.26,15.851,0.527,23.776,0.624
			c7.925,0.129,15.851,0.131,23.776,0.046c3.963-0.057,7.925-0.156,11.888-0.258l11.888-0.425
			c7.925-0.319,15.851-0.646,23.776-0.842l2.439-0.061l0.058,2.558c0.179,7.925,0.243,15.851,0.159,23.776l-0.107,11.888
			l-0.224,11.889c-0.06,3.962-0.194,7.925-0.311,11.888c-0.103,3.963-0.252,7.925-0.418,11.888
			c-0.315,7.926-0.708,15.851-1.297,23.776l-0.021,0.281L355.028,223.268z M354.711,222.651c-0.576-7.82-0.968-15.64-1.279-23.459
			c-0.166-3.963-0.315-7.925-0.418-11.888c-0.115-3.963-0.25-7.926-0.31-11.888l-0.223-11.889l-0.108-11.888
			c-0.084-7.926-0.019-15.851,0.16-23.776l2.497,2.497c-7.926-0.196-15.851-0.522-23.776-0.842l-11.888-0.425
			c-3.963-0.102-7.925-0.201-11.888-0.258c-7.925-0.085-15.851-0.083-23.776,0.046c-7.925,0.097-15.851,0.364-23.776,0.624
			l1.643-1.643c0.252,7.925,0.58,15.851,0.765,23.776c0.208,7.925,0.315,15.851,0.428,23.776l0.299,23.775
			c0.059,3.963,0.06,7.926,0.064,11.889l0.001,11.888l-3.2-3.2c7.926,0.103,15.851,0.124,23.776,0.293l11.888,0.231l11.888,0.313
			l11.888,0.375c3.963,0.125,7.925,0.283,11.888,0.453c3.963,0.146,7.925,0.365,11.888,0.566
			C346.997,222.193,350.854,222.392,354.711,222.651z"/>
	</g>
	<g>
		<rect x="433.6" y="286.063" fill="#2A83A2" width="95.106" height="95.104"/>
		<path fill="#1D1D1B" d="M528.706,381.467c-3.963,0.27-7.926,0.471-11.889,0.668c-3.963,0.201-7.925,0.42-11.888,0.566
			c-3.963,0.17-7.926,0.328-11.889,0.453l-11.888,0.375l-11.889,0.313l-11.889,0.231c-7.925,0.169-15.851,0.19-23.776,0.293
			l-3.2,0.041v-3.241l0.002-11.888c0.003-3.963,0.004-7.926,0.063-11.889l0.299-23.775c0.113-7.926,0.221-15.852,0.428-23.776
			c0.186-7.926,0.514-15.851,0.766-23.776l0.054-1.694l1.589,0.052c7.926,0.26,15.852,0.527,23.776,0.624
			c7.926,0.129,15.852,0.131,23.777,0.046c3.962-0.057,7.925-0.155,11.888-0.258l11.889-0.425
			c7.925-0.319,15.851-0.646,23.776-0.842l2.439-0.061l0.058,2.558c0.179,7.926,0.243,15.851,0.159,23.776l-0.107,11.888
			l-0.224,11.889c-0.06,3.962-0.194,7.925-0.311,11.888c-0.103,3.963-0.252,7.925-0.418,11.888
			c-0.315,7.926-0.708,15.851-1.297,23.776l-0.021,0.281L528.706,381.467z M528.389,380.85c-0.576-7.82-0.968-15.64-1.279-23.459
			c-0.166-3.963-0.315-7.925-0.418-11.888c-0.116-3.963-0.251-7.926-0.311-11.888l-0.224-11.889l-0.107-11.888
			c-0.084-7.926-0.02-15.851,0.159-23.776l2.497,2.497c-7.926-0.196-15.852-0.522-23.776-0.842l-11.889-0.425
			c-3.963-0.103-7.926-0.201-11.888-0.258c-7.926-0.085-15.852-0.083-23.777,0.046c-7.925,0.097-15.851,0.364-23.776,0.624
			l1.643-1.643c0.252,7.926,0.58,15.851,0.766,23.776c0.207,7.925,0.314,15.851,0.428,23.776l0.299,23.775
			c0.06,3.963,0.061,7.926,0.063,11.889l0.002,11.888l-3.2-3.2c7.926,0.103,15.852,0.124,23.776,0.293l11.889,0.231l11.889,0.313
			l11.888,0.375c3.963,0.125,7.926,0.283,11.889,0.453c3.963,0.146,7.925,0.365,11.888,0.566
			C520.675,380.392,524.532,380.591,528.389,380.85z"/>
	</g>
	<g>
		<rect x="590.944" y="286.063" fill="#2A83A2" width="95.106" height="95.105"/>
		<path fill="#1D1D1B" d="M686.051,381.468c-3.963,0.27-7.926,0.471-11.889,0.668c-3.962,0.201-7.925,0.42-11.888,0.566
			c-3.963,0.17-7.926,0.328-11.889,0.453l-11.888,0.375l-11.889,0.313l-11.889,0.231c-7.925,0.169-15.851,0.19-23.776,0.292
			l-3.2,0.042l0.001-3.241l0.001-11.889c0.003-3.962,0.004-7.925,0.063-11.888l0.299-23.776c0.113-7.926,0.221-15.851,0.428-23.776
			c0.186-7.926,0.514-15.851,0.766-23.776l0.054-1.694l1.589,0.052c7.926,0.26,15.852,0.527,23.776,0.624
			c7.926,0.129,15.852,0.131,23.776,0.046c3.963-0.057,7.926-0.155,11.889-0.258l11.889-0.425
			c7.925-0.319,15.851-0.646,23.776-0.842l2.439-0.061l0.058,2.558c0.179,7.926,0.243,15.851,0.159,23.776l-0.107,11.889
			l-0.224,11.888c-0.061,3.963-0.194,7.926-0.311,11.889c-0.103,3.962-0.252,7.925-0.418,11.888
			c-0.315,7.926-0.708,15.851-1.297,23.776l-0.021,0.281L686.051,381.468z M685.733,380.851c-0.576-7.82-0.969-15.64-1.279-23.459
			c-0.166-3.963-0.315-7.926-0.418-11.888c-0.116-3.963-0.25-7.926-0.311-11.889l-0.224-11.888l-0.107-11.889
			c-0.084-7.926-0.02-15.851,0.159-23.776l2.497,2.497c-7.926-0.196-15.852-0.522-23.776-0.842l-11.889-0.425
			c-3.963-0.103-7.926-0.201-11.889-0.258c-7.925-0.085-15.851-0.083-23.776,0.046c-7.925,0.097-15.851,0.364-23.776,0.624
			l1.643-1.643c0.252,7.926,0.58,15.851,0.766,23.776c0.207,7.926,0.314,15.851,0.428,23.776l0.299,23.776
			c0.06,3.963,0.061,7.926,0.063,11.888l0.001,11.889l-3.199-3.199c7.926,0.102,15.852,0.123,23.776,0.292l11.889,0.231
			l11.889,0.313l11.888,0.375c3.963,0.125,7.926,0.283,11.889,0.453c3.963,0.146,7.926,0.365,11.888,0.566
			C678.02,380.393,681.876,380.592,685.733,380.851z"/>
	</g>
	<g>
		<rect x="512.272" y="127.864" fill="#CC6633" width="95.105" height="95.104"/>
		<path fill="#1D1D1B" d="M607.378,223.268c-3.963,0.27-7.926,0.471-11.889,0.668c-3.962,0.201-7.925,0.42-11.888,0.566
			c-3.963,0.17-7.926,0.328-11.888,0.453l-11.889,0.375l-11.888,0.313l-11.889,0.231c-7.926,0.169-15.851,0.19-23.776,0.293
			l-3.2,0.041l0.001-3.241l0.001-11.888c0.003-3.963,0.004-7.926,0.063-11.889l0.299-23.775c0.113-7.926,0.221-15.851,0.428-23.776
			c0.186-7.926,0.514-15.851,0.766-23.776l0.054-1.694l1.589,0.052c7.926,0.26,15.851,0.527,23.776,0.624
			c7.926,0.129,15.851,0.131,23.776,0.046c3.963-0.057,7.926-0.156,11.889-0.258l11.888-0.425
			c7.926-0.319,15.851-0.646,23.776-0.842l2.439-0.061l0.058,2.558c0.179,7.925,0.243,15.851,0.159,23.776l-0.107,11.888
			l-0.224,11.889c-0.06,3.962-0.194,7.925-0.311,11.888c-0.103,3.963-0.252,7.925-0.418,11.888
			c-0.315,7.926-0.708,15.851-1.297,23.776l-0.021,0.281L607.378,223.268z M607.061,222.651c-0.576-7.82-0.968-15.64-1.279-23.459
			c-0.166-3.963-0.315-7.925-0.418-11.888c-0.116-3.963-0.251-7.926-0.311-11.888l-0.224-11.889l-0.107-11.888
			c-0.084-7.926-0.02-15.851,0.159-23.776l2.497,2.497c-7.926-0.196-15.851-0.522-23.776-0.842l-11.888-0.425
			c-3.963-0.102-7.926-0.201-11.889-0.258c-7.926-0.085-15.851-0.083-23.776,0.046c-7.926,0.097-15.851,0.364-23.776,0.624
			l1.643-1.643c0.252,7.925,0.58,15.851,0.766,23.776c0.207,7.925,0.314,15.851,0.428,23.776l0.299,23.775
			c0.06,3.963,0.061,7.926,0.063,11.889l0.001,11.888l-3.199-3.2c7.926,0.103,15.851,0.124,23.776,0.293l11.889,0.231l11.888,0.313
			l11.889,0.375c3.962,0.125,7.925,0.283,11.888,0.453c3.963,0.146,7.926,0.365,11.888,0.566
			C599.347,222.193,603.204,222.392,607.061,222.651z"/>
	</g>
</g>
<g id="Calque_3">
	<rect x="-12.668" y="117.245" fill="none" width="219.582" height="153.847"/>
	<text transform="matrix(1 0 0 1 11.4004 142.4448)"><tspan x="0" y="0" fill="#27348B" font-family="'Noteworthy-Bold'" font-size="30">Original work</tspan><tspan x="46.404" y="42" fill="#27348B" font-family="'Noteworthy-Bold'" font-size="30">(NBS)</tspan><tspan x="20.886" y="84" fill="#CC6633" font-family="'Noteworthy-Bold'" font-size="30">MATLAB</tspan></text>
	<rect x="19.15" y="288.056" fill="none" width="155.946" height="91.609"/>
	<text transform="matrix(1 0 0 1 41.3242 313.2563)"><tspan x="0" y="0" fill="#27348B" font-family="'Noteworthy-Bold'" font-size="30">StratiPy</tspan><tspan x="9.374" y="42" fill="#2A83A2" font-family="'Noteworthy-Bold'" font-size="30">Python</tspan></text>
	<rect x="200.088" y="67.476" fill="none" width="219.582" height="82.519"/>
	<text transform="matrix(1 0 0 1 269.6416 92.6758)" fill="#27348B" font-family="'Noteworthy-Bold'" font-size="30">1000</text>
	<rect x="449.599" y="68.175" fill="none" width="219.582" height="82.519"/>
	<text transform="matrix(1 0 0 1 531.002 93.375)" fill="#27348B" font-family="'Noteworthy-Bold'" font-size="30">100</text>
	<rect x="589.368" y="323.784" fill="none" width="95.805" height="25.176"/>
	<text transform="matrix(1 0 0 1 593.7256 341.4243)" fill="#FFFFFF" font-family="'Noteworthy-Bold'" font-size="21"> λ = </text>
	<text transform="matrix(0.9 0 0 1 630.6592 341.4243)" fill="#FFFFFF" font-family="'Noteworthy-Bold'" font-size="21">1800</text>
	<rect x="433.151" y="324.979" fill="none" width="95.805" height="20.98"/>
	<text transform="matrix(1 0 0 1 459.3057 342.6196)" fill="#FFFFFF" font-family="'Noteworthy-Bold'" font-size="21"> λ = 1</text>
	<rect x="261.767" y="16.756" fill="none" width="328.673" height="36.365"/>
	<text transform="matrix(1 0 0 1 272.8057 41.9556)" fill="#27348B" font-family="'Noteworthy-Bold'" font-size="30">Bootstrap permutations</text>
</g>
<g id="Calque_4">
	<g display="none">
		<g display="inline">
			
				<line fill="none" stroke="#CF0272" stroke-width="6" stroke-linecap="round" stroke-miterlimit="10" x1="385.238" y1="172.028" x2="475.601" y2="172.028"/>
			<g>
				<path fill="#CF0272" d="M367.133,172.028c8.52,3.161,19.09,8.555,25.642,14.268l-5.16-14.268l5.16-14.265
					C386.223,163.476,375.652,168.87,367.133,172.028z"/>
			</g>
			<g>
				<path fill="#CF0272" d="M493.706,172.028c-8.52,3.161-19.09,8.555-25.643,14.268l5.161-14.268l-5.161-14.265
					C474.616,163.476,485.187,168.87,493.706,172.028z"/>
			</g>
		</g>
	</g>
	<g>
		<g>
			
				<line fill="none" stroke="#CF0272" stroke-width="6" stroke-linecap="round" stroke-miterlimit="10" x1="492.498" y1="269.893" x2="525.259" y2="242.267"/>
			<g>
				<path fill="#CF0272" d="M478.657,281.565c8.551-3.075,20.108-5.767,28.801-5.623l-13.144-7.58l-5.251-14.232
					C487.738,262.721,483.134,273.659,478.657,281.565z"/>
			</g>
			<g>
				<path fill="#CF0272" d="M539.1,230.595c-4.475,7.909-9.079,18.847-10.405,27.438l-5.252-14.234l-13.142-7.577
					C518.993,236.364,530.551,233.673,539.1,230.595z"/>
			</g>
		</g>
	</g>
	<g>
		<g>
			
				<line fill="none" stroke="#CF0272" stroke-width="6" stroke-linecap="round" stroke-miterlimit="10" x1="594.598" y1="242.872" x2="623.247" y2="270.347"/>
			<g>
				<path fill="#CF0272" d="M581.53,230.339c3.961,8.179,7.856,19.388,8.631,28.046l6.151-13.869l13.599-6.724
					C601.228,237.38,589.865,233.957,581.53,230.339z"/>
			</g>
			<g>
				<path fill="#CF0272" d="M636.314,282.879c-8.337-3.615-19.699-7.039-28.383-7.451l13.601-6.726l6.149-13.867
					C628.456,263.494,632.352,274.703,636.314,282.879z"/>
			</g>
		</g>
	</g>
	<rect x="203.497" y="57.825" opacity="0.75" fill="#FFFFFF" width="204.196" height="339.86"/>
</g>
</svg>
