<?xml version="1.0" encoding="utf-8"?>
<!-- Generator: Adobe Illustrator 15.1.0, SVG Export Plug-In . SVG Version: 6.00 Build 0)  -->
<!DOCTYPE svg PUBLIC "-//W3C//DTD SVG 1.1//EN" "http://www.w3.org/Graphics/SVG/1.1/DTD/svg11.dtd">
<svg version="1.1" id="Calque_1" xmlns="http://www.w3.org/2000/svg" xmlns:xlink="http://www.w3.org/1999/xlink" x="0px" y="0px"
	 width="100.999px" height="100.903px" viewBox="-78.673 -158.2 100.999 100.903"
	 enable-background="new -78.673 -158.2 100.999 100.903" xml:space="preserve">
<g id="Calque_1_1_">
	
		<line fill="none" stroke="#27348B" stroke-width="6" stroke-linecap="round" stroke-miterlimit="10" x1="-387.044" y1="-276.512" x2="-387.044" y2="108.103"/>
	
		<line fill="none" stroke="#27348B" stroke-width="6" stroke-linecap="round" stroke-miterlimit="10" x1="-581.368" y1="-178.723" x2="120.246" y2="-177.823"/>
	
		<line fill="none" stroke="#27348B" stroke-width="6" stroke-linecap="round" stroke-miterlimit="10" x1="-581.368" y1="-36.312" x2="120.246" y2="-35.409"/>
	<g>
		<g>
			
				<line fill="none" stroke="#27348B" stroke-width="6" stroke-linecap="round" stroke-miterlimit="10" x1="-183.079" y1="-221.967" x2="-183.079" y2="-216.967"/>
			
				<line fill="none" stroke="#27348B" stroke-width="6" stroke-linecap="round" stroke-miterlimit="10" stroke-dasharray="10.2276,15.3413" x1="-183.079" y1="-201.625" x2="-183.079" y2="97.53"/>
			
				<line fill="none" stroke="#27348B" stroke-width="6" stroke-linecap="round" stroke-miterlimit="10" x1="-183.079" y1="105.201" x2="-183.079" y2="110.201"/>
		</g>
	</g>
</g>
<g id="Calque_2">
	<g>
		<rect x="-327.821" y="-155.642" fill="#CC6633" width="95.105" height="95.104"/>
		<path fill="#1D1D1B" d="M-232.716-60.237c-3.963,0.27-7.925,0.471-11.888,0.668c-3.963,0.2-7.925,0.42-11.888,0.565
			c-3.963,0.17-7.925,0.328-11.888,0.453l-11.888,0.375l-11.888,0.313l-11.888,0.23c-7.925,0.169-15.851,0.19-23.776,0.293
			l-3.2,0.041v-3.241l0.001-11.888c0.004-3.963,0.005-7.926,0.064-11.889l0.299-23.775c0.113-7.926,0.22-15.851,0.428-23.776
			c0.185-7.926,0.513-15.851,0.765-23.775l0.054-1.694l1.588,0.052c7.926,0.261,15.851,0.527,23.776,0.624
			c7.925,0.129,15.851,0.132,23.776,0.046c3.963-0.057,7.925-0.155,11.888-0.258l11.888-0.425
			c7.925-0.319,15.851-0.646,23.776-0.842l2.439-0.062l0.058,2.559c0.179,7.925,0.243,15.851,0.159,23.775l-0.107,11.889
			l-0.224,11.889c-0.06,3.962-0.194,7.925-0.311,11.888c-0.103,3.964-0.252,7.926-0.418,11.889
			c-0.315,7.926-0.708,15.851-1.297,23.775l-0.021,0.281L-232.716-60.237z M-233.033-60.854c-0.576-7.82-0.968-15.641-1.279-23.459
			c-0.166-3.963-0.315-7.926-0.418-11.889c-0.115-3.963-0.25-7.926-0.31-11.888l-0.223-11.889l-0.108-11.889
			c-0.084-7.926-0.019-15.851,0.16-23.775l2.497,2.497c-7.926-0.196-15.851-0.522-23.776-0.842l-11.888-0.426
			c-3.963-0.102-7.925-0.201-11.888-0.258c-7.925-0.085-15.851-0.083-23.776,0.046c-7.925,0.098-15.851,0.364-23.776,0.624
			l1.643-1.643c0.252,7.925,0.58,15.851,0.765,23.775c0.208,7.926,0.315,15.852,0.428,23.776l0.299,23.775
			c0.059,3.963,0.06,7.926,0.064,11.889l0.001,11.888l-3.2-3.2c7.926,0.104,15.851,0.124,23.776,0.294l11.888,0.23l11.888,0.313
			l11.888,0.375c3.963,0.125,7.925,0.282,11.888,0.452c3.963,0.146,7.925,0.365,11.888,0.566
			C-240.747-61.312-236.89-61.113-233.033-60.854z"/>
	</g>
	<g>
		<rect x="-154.145" y="2.558" fill="#2A83A2" width="95.106" height="95.104"/>
		<path fill="#1D1D1B" d="M-59.038,97.962c-3.963,0.271-7.926,0.472-11.889,0.668c-3.963,0.201-7.925,0.42-11.888,0.566
			c-3.963,0.17-7.926,0.328-11.889,0.453l-11.888,0.375l-11.889,0.312l-11.889,0.231c-7.925,0.169-15.851,0.189-23.776,0.293
			l-3.2,0.041v-3.241l0.002-11.888c0.003-3.963,0.004-7.926,0.063-11.89l0.299-23.774c0.113-7.926,0.221-15.853,0.428-23.776
			c0.186-7.926,0.514-15.851,0.766-23.775l0.054-1.694l1.589,0.052c7.926,0.26,15.852,0.527,23.776,0.624
			c7.926,0.129,15.852,0.131,23.777,0.046c3.962-0.057,7.925-0.154,11.888-0.258l11.889-0.425
			c7.925-0.319,15.851-0.646,23.776-0.842L-56.599,0l0.058,2.559c0.179,7.926,0.243,15.851,0.159,23.775l-0.107,11.889
			l-0.224,11.889c-0.06,3.962-0.194,7.925-0.311,11.888c-0.103,3.963-0.252,7.925-0.418,11.889
			c-0.315,7.926-0.708,15.851-1.297,23.775l-0.021,0.281L-59.038,97.962z M-59.355,97.344c-0.576-7.819-0.968-15.64-1.279-23.459
			c-0.166-3.963-0.315-7.925-0.418-11.888c-0.116-3.963-0.251-7.926-0.311-11.888l-0.224-11.889l-0.107-11.889
			c-0.084-7.926-0.02-15.851,0.159-23.775l2.497,2.497c-7.926-0.196-15.852-0.522-23.776-0.843l-11.889-0.425
			c-3.963-0.103-7.926-0.201-11.888-0.258c-7.926-0.085-15.852-0.083-23.777,0.046c-7.925,0.097-15.851,0.364-23.776,0.624
			l1.643-1.643c0.252,7.926,0.58,15.851,0.766,23.775c0.207,7.925,0.314,15.852,0.428,23.776l0.299,23.774
			c0.06,3.964,0.061,7.927,0.063,11.89l0.002,11.888l-3.2-3.2c7.926,0.104,15.852,0.124,23.776,0.293l11.889,0.231l11.889,0.312
			l11.888,0.375c3.963,0.125,7.926,0.283,11.889,0.453c3.963,0.146,7.925,0.365,11.888,0.566
			C-67.069,96.887-63.212,97.086-59.355,97.344z"/>
	</g>
	<g>
		<rect x="3.2" y="2.558" fill="#2A83A2" width="95.106" height="95.104"/>
		<path fill="#1D1D1B" d="M98.307,97.963c-3.963,0.271-7.927,0.472-11.89,0.668c-3.961,0.201-7.924,0.42-11.888,0.566
			c-3.963,0.17-7.926,0.328-11.889,0.453l-11.888,0.375l-11.889,0.312l-11.889,0.231c-7.925,0.169-15.851,0.189-23.776,0.292
			L0,100.904l0.001-3.241l0.001-11.889c0.003-3.962,0.004-7.925,0.063-11.889L0.364,50.11c0.113-7.926,0.221-15.852,0.428-23.776
			c0.186-7.926,0.514-15.851,0.766-23.775l0.054-1.694L3.2,0.915c7.926,0.26,15.852,0.527,23.776,0.624
			c7.926,0.129,15.852,0.131,23.776,0.046c3.962-0.057,7.926-0.154,11.889-0.258L74.53,0.902C82.455,0.583,90.38,0.256,98.306,0.06
			L100.746,0l0.059,2.559c0.179,7.926,0.242,15.851,0.158,23.775l-0.106,11.89l-0.224,11.888c-0.062,3.963-0.194,7.926-0.312,11.889
			c-0.103,3.962-0.252,7.925-0.418,11.889c-0.315,7.926-0.708,15.851-1.297,23.775l-0.021,0.281L98.307,97.963z M97.989,97.346
			c-0.575-7.82-0.969-15.641-1.278-23.459c-0.166-3.964-0.315-7.927-0.418-11.889c-0.117-3.963-0.25-7.926-0.312-11.889
			l-0.224-11.888L95.65,26.334c-0.084-7.926-0.02-15.851,0.159-23.775l2.497,2.497C90.38,4.858,82.455,4.532,74.53,4.213
			L62.642,3.788c-3.963-0.103-7.926-0.201-11.889-0.258c-7.925-0.085-15.851-0.083-23.776,0.046C19.052,3.673,11.126,3.94,3.2,4.2
			l1.643-1.643c0.252,7.926,0.58,15.851,0.766,23.775C5.815,34.26,5.923,42.185,6.036,50.11l0.299,23.775
			c0.06,3.964,0.061,7.927,0.063,11.889l0.001,11.889L3.2,94.464c7.926,0.103,15.852,0.123,23.776,0.292l11.889,0.231L50.754,95.3
			l11.888,0.375c3.963,0.125,7.926,0.283,11.889,0.453c3.963,0.146,7.926,0.365,11.889,0.566
			C90.275,96.888,94.132,97.087,97.989,97.346z"/>
	</g>
	<g>
		<rect x="-75.472" y="-155.642" fill="#CC6633" width="95.105" height="95.104"/>
		<path fill="#1D1D1B" d="M19.634-60.237c-3.963,0.27-7.926,0.471-11.889,0.668c-3.962,0.2-7.925,0.42-11.888,0.565
			c-3.963,0.17-7.926,0.328-11.888,0.453l-11.889,0.375l-11.888,0.313l-11.889,0.23c-7.926,0.169-15.851,0.19-23.776,0.293
			l-3.2,0.041l0.001-3.241l0.001-11.888c0.003-3.963,0.004-7.926,0.063-11.889l0.299-23.775c0.113-7.926,0.221-15.851,0.428-23.776
			c0.186-7.926,0.514-15.851,0.766-23.775l0.054-1.694l1.589,0.052c7.926,0.261,15.851,0.527,23.776,0.624
			c7.926,0.129,15.851,0.132,23.776,0.046c3.963-0.057,7.926-0.155,11.889-0.258l11.888-0.425
			c7.926-0.319,15.851-0.646,23.776-0.842l2.439-0.062l0.058,2.559c0.179,7.925,0.243,15.851,0.159,23.775l-0.107,11.889
			l-0.224,11.889c-0.06,3.962-0.194,7.925-0.311,11.888c-0.103,3.964-0.252,7.926-0.418,11.889
			c-0.315,7.926-0.708,15.851-1.297,23.775l-0.021,0.281L19.634-60.237z M19.316-60.854c-0.576-7.82-0.968-15.641-1.279-23.459
			c-0.166-3.963-0.315-7.926-0.418-11.889c-0.116-3.963-0.251-7.926-0.311-11.888l-0.224-11.889l-0.107-11.889
			c-0.084-7.926-0.02-15.851,0.159-23.775l2.497,2.497c-7.926-0.196-15.851-0.522-23.776-0.842l-11.888-0.426
			c-3.963-0.102-7.926-0.201-11.889-0.258c-7.926-0.085-15.851-0.083-23.776,0.046c-7.926,0.098-15.851,0.364-23.776,0.624
			l1.643-1.643c0.252,7.925,0.58,15.851,0.766,23.775c0.207,7.926,0.314,15.852,0.428,23.776l0.299,23.775
			c0.06,3.963,0.061,7.926,0.063,11.889l0.001,11.888l-3.199-3.2c7.926,0.104,15.851,0.124,23.776,0.294l11.889,0.23l11.888,0.313
			l11.889,0.375c3.962,0.125,7.925,0.282,11.888,0.452c3.963,0.146,7.926,0.365,11.888,0.566
			C11.603-61.312,15.46-61.113,19.316-60.854z"/>
	</g>
</g>
<g id="Calque_3">
	<rect x="-600.412" y="-166.26" fill="none" width="219.582" height="153.847"/>
	<text transform="matrix(1 0 0 1 -576.3442 -141.0608)" fill="#27348B" font-family="'Noteworthy-Bold'" font-size="30">Original work</text>
	<text transform="matrix(1 0 0 1 -529.9399 -99.0608)" fill="#27348B" font-family="'Noteworthy-Bold'" font-size="30">(NBS)</text>
	<text transform="matrix(1 0 0 1 -555.4575 -57.0608)" fill="#CC6633" font-family="'Noteworthy-Bold'" font-size="30">MATLAB</text>
	<rect x="-568.594" y="4.551" fill="none" width="155.946" height="91.609"/>
	<text transform="matrix(1 0 0 1 -546.4194 29.7507)" fill="#27348B" font-family="'Noteworthy-Bold'" font-size="30">StratiPy</text>
	<text transform="matrix(1 0 0 1 -537.0464 71.7507)" fill="#2A83A2" font-family="'Noteworthy-Bold'" font-size="30">Python</text>
	<rect x="-387.656" y="-216.03" fill="none" width="219.582" height="82.52"/>
	<text transform="matrix(1 0 0 1 -318.1021 -190.8303)" fill="#27348B" font-family="'Noteworthy-Bold'" font-size="30">1000</text>
	<rect x="-138.146" y="-215.33" fill="none" width="219.582" height="82.52"/>
	<text transform="matrix(1 0 0 1 -56.7422 -190.1311)" fill="#27348B" font-family="'Noteworthy-Bold'" font-size="30">100</text>
	<rect x="1.624" y="40.278" fill="none" width="95.805" height="25.176"/>
	<text transform="matrix(1 0 0 1 5.9814 57.9187)" fill="#FFFFFF" font-family="'Noteworthy-Bold'" font-size="21"> λ = </text>
	<text transform="matrix(0.9 0 0 1 42.915 57.9187)" fill="#FFFFFF" font-family="'Noteworthy-Bold'" font-size="21">1800</text>
	<rect x="-154.593" y="41.474" fill="none" width="95.805" height="20.979"/>
	<text transform="matrix(1 0 0 1 -128.4385 59.114)" fill="#FFFFFF" font-family="'Noteworthy-Bold'" font-size="21"> λ = 1</text>
	<rect x="-325.978" y="-266.75" fill="none" width="328.673" height="36.365"/>
	<text transform="matrix(1 0 0 1 -314.939 -241.55)" fill="#27348B" font-family="'Noteworthy-Bold'" font-size="30">Bootstrap permutations</text>
</g>
<g id="Calque_4">
	<g>
		<g>
			
				<line fill="none" stroke="#CF0272" stroke-width="6" stroke-linecap="round" stroke-miterlimit="10" x1="-202.506" y1="-111.478" x2="-112.144" y2="-111.478"/>
			<g>
				<path fill="#CF0272" d="M-220.611-111.478c8.52,3.161,19.09,8.555,25.642,14.268l-5.16-14.268l5.16-14.266
					C-201.521-120.029-212.092-114.636-220.611-111.478z"/>
			</g>
			<g>
				<path fill="#CF0272" d="M-94.038-111.478c-8.52,3.161-19.09,8.555-25.643,14.268l5.161-14.268l-5.161-14.266
					C-113.128-120.029-102.558-114.636-94.038-111.478z"/>
			</g>
		</g>
	</g>
	<g display="none">
		<g display="inline">
			
				<line fill="none" stroke="#CF0272" stroke-width="6" stroke-linecap="round" stroke-miterlimit="10" x1="-95.246" y1="-13.612" x2="-62.485" y2="-41.238"/>
			<g>
				<path fill="#CF0272" d="M-109.087-1.94c8.551-3.075,20.108-5.768,28.801-5.623l-13.144-7.58l-5.251-14.232
					C-100.006-20.784-104.61-9.847-109.087-1.94z"/>
			</g>
			<g>
				<path fill="#CF0272" d="M-48.645-52.91c-4.475,7.909-9.079,18.848-10.405,27.438l-5.252-14.234l-13.142-7.577
					C-68.751-47.142-57.193-49.832-48.645-52.91z"/>
			</g>
		</g>
	</g>
	<g display="none">
		<g display="inline">
			
				<line fill="none" stroke="#CF0272" stroke-width="6" stroke-linecap="round" stroke-miterlimit="10" x1="6.854" y1="-40.634" x2="35.503" y2="-13.158"/>
			<g>
				<path fill="#CF0272" d="M-6.214-53.166c3.961,8.18,7.856,19.389,8.631,28.046L8.568-38.99l13.599-6.724
					C13.483-46.125,2.121-49.549-6.214-53.166z"/>
			</g>
			<g>
				<path fill="#CF0272" d="M48.57-0.626c-8.337-3.615-19.699-7.039-28.383-7.451l13.601-6.726l6.149-13.867
					C40.712-20.012,44.607-8.803,48.57-0.626z"/>
			</g>
		</g>
	</g>
</g>
<g id="Calque_5">
	
		<rect x="-598.233" y="-39.952" display="none" opacity="0.7" fill="#FFFFFF" enable-background="new    " width="744.755" height="162.237"/>
</g>
</svg>
